<?xml version="1.0" encoding="utf-8"?>
<!-- Generator: Adobe Illustrator 19.2.0, SVG Export Plug-In . SVG Version: 6.00 Build 0)  -->
<svg version="1.1" id="Layer_1" xmlns="http://www.w3.org/2000/svg" xmlns:xlink="http://www.w3.org/1999/xlink" x="0px" y="0px"
	 viewBox="0 0 41.7 61.9" style="enable-background:new 0 0 41.7 61.9;" xml:space="preserve">
<style type="text/css">
	.st0{fill:#C94545;stroke:#FFFFFF;stroke-miterlimit:10;}
	.st1{fill:#FFFFFF;}
	.st2{fill-rule:evenodd;clip-rule:evenodd;fill:#FFFFFF;}
</style>
<rect x="-1.6" y="0.3" class="st0" width="44.7" height="63.2"/>
<path class="st1" d="M13.8,25c-0.1,0.1-0.3,0.2-0.7,0.2h-1.2c-0.4,0-0.6-0.1-0.7-0.2C11,24.9,11,24.6,11,24.3v-2.3H8.3v2.7
	c0,1.7,0.9,2.6,2.8,2.6h2.9c1.9,0,2.8-0.9,2.8-2.6v-5.3c0-1.7-0.9-2.6-2.7-2.6h-2.2c-0.4,0-0.6-0.1-0.7-0.2
	c-0.1-0.1-0.2-0.3-0.2-0.7v-4.1c0-0.4,0.1-0.6,0.2-0.7c0.1-0.1,0.4-0.2,0.7-0.2h1.2c0.4,0,0.6,0.1,0.7,0.2c0.1,0.1,0.2,0.3,0.2,0.7
	V14h2.7v-2.7c0-1.7-0.9-2.6-2.8-2.6H11c-1.8,0-2.8,0.9-2.8,2.6v4.9c0,1.8,0.9,2.6,2.7,2.6h2.2c0.4,0,0.6,0.1,0.7,0.2
	c0.1,0.1,0.2,0.3,0.2,0.7v4.5C14,24.6,13.9,24.9,13.8,25z"/>
<path class="st1" d="M27.8,11l1.7,9.8h-3.2L27.8,11z M33.3,27.3L29.8,8.7h-3.9l-3.3,18.6h2.7l0.7-4.3h3.9l0.7,4.3H33.3z"/>
<path class="st1" d="M16.9,33.6c0-1.7-0.9-2.6-2.8-2.6h-3.2c-1.8,0-2.8,0.9-2.8,2.6V47c0,1.8,0.9,2.6,2.8,2.6h3.2
	c1.8,0,2.8-0.9,2.8-2.6v-7h-4.2v2.1h1.5v4.5c0,0.4-0.1,0.6-0.2,0.7c-0.1,0.1-0.4,0.2-0.7,0.2h-1.5c-0.4,0-0.6-0.1-0.7-0.2
	c-0.1-0.1-0.2-0.3-0.2-0.7V34c0-0.4,0.1-0.6,0.2-0.7c0.1-0.1,0.4-0.2,0.7-0.2h1.5c0.4,0,0.6,0.1,0.7,0.2c0.1,0.1,0.2,0.3,0.2,0.7
	v2.5h2.7V33.6z"/>
<path class="st1" d="M26.8,41.1h4.3v-2.2h-4.3v-5.7h5.2V31h-7.9v18.6h8.1v-2.2h-5.4V41.1z"/>
<path class="st2" d="M8.3,52.6h23.8v2.4H8.3V52.6z"/>
</svg>
